<svg xmlns="http://www.w3.org/2000/svg" xmlns:xlink="http://www.w3.org/1999/xlink" width="358" zoomAndPan="magnify" viewBox="0 0 268.5 125.249995" height="167" preserveAspectRatio="xMidYMid meet" version="1.2"><defs><clipPath id="8848bd6aab"><path d="M 126.324219 5.730469 L 141.546875 5.730469 L 141.546875 20.21875 L 126.324219 20.21875 Z M 126.324219 5.730469 "/></clipPath><clipPath id="a60ea10be2"><path d="M 133.921875 5.730469 L 135.71875 11.265625 L 141.523438 11.265625 L 136.828125 14.683594 L 138.621094 20.21875 L 133.921875 16.800781 L 129.226562 20.21875 L 131.019531 14.683594 L 126.324219 11.265625 L 132.128906 11.265625 Z M 133.921875 5.730469 "/></clipPath><clipPath id="b4f3fea71b"><path d="M 145.257812 12.976562 L 157.195312 12.976562 L 157.195312 24.335938 L 145.257812 24.335938 Z M 145.257812 12.976562 "/></clipPath><clipPath id="57f94843e5"><path d="M 151.21875 12.976562 L 152.625 17.316406 L 157.179688 17.316406 L 153.492188 19.996094 L 154.902344 24.335938 L 151.21875 21.65625 L 147.535156 24.335938 L 148.941406 19.996094 L 145.257812 17.316406 L 149.808594 17.316406 Z M 151.21875 12.976562 "/></clipPath><clipPath id="74a61fd210"><path d="M 110.667969 12.976562 L 122.609375 12.976562 L 122.609375 24.335938 L 110.667969 24.335938 Z M 110.667969 12.976562 "/></clipPath><clipPath id="e27a5d77f8"><path d="M 116.628906 12.976562 L 118.039062 17.316406 L 122.589844 17.316406 L 118.90625 19.996094 L 120.3125 24.335938 L 116.628906 21.65625 L 112.945312 24.335938 L 114.351562 19.996094 L 110.667969 17.316406 L 115.222656 17.316406 Z M 116.628906 12.976562 "/></clipPath></defs><g id="f659d45548"><g style="fill:#000000;fill-opacity:1;"><g transform="translate(24.888106, 74.289057)"><path style="stroke:none" d="M 30.96875 -30.75 C 29.820312 -32.15625 28.425781 -33.242188 26.78125 -34.015625 C 25.132812 -34.796875 23.457031 -35.1875 21.75 -35.1875 C 18.195312 -35.1875 15.253906 -33.78125 12.921875 -30.96875 C 10.597656 -28.15625 9.4375 -24.75 9.4375 -20.75 C 9.4375 -16.832031 10.617188 -13.503906 12.984375 -10.765625 C 15.347656 -8.023438 18.253906 -6.65625 21.703125 -6.65625 C 23.472656 -6.65625 25.171875 -7.070312 26.796875 -7.90625 C 28.429688 -8.738281 29.820312 -9.800781 30.96875 -11.09375 L 30.96875 -1.390625 C 29.414062 -0.648438 27.867188 -0.0507812 26.328125 0.40625 C 24.796875 0.875 23.179688 1.109375 21.484375 1.109375 C 17.773438 1.109375 14.375 0.164062 11.28125 -1.71875 C 8.195312 -3.601562 5.710938 -6.25 3.828125 -9.65625 C 1.941406 -13.0625 1 -16.707031 1 -20.59375 C 1 -24.664062 1.90625 -28.429688 3.71875 -31.890625 C 5.53125 -35.347656 8.015625 -38.054688 11.171875 -40.015625 C 14.335938 -41.972656 17.828125 -42.953125 21.640625 -42.953125 C 23.304688 -42.953125 24.925781 -42.738281 26.5 -42.3125 C 28.070312 -41.894531 29.5625 -41.296875 30.96875 -40.515625 Z M 30.96875 -30.75 "/></g></g><g style="fill:#000000;fill-opacity:1;"><g transform="translate(58.244673, 74.289057)"><path style="stroke:none" d="M 1 -20.984375 C 1 -25.203125 1.875 -28.972656 3.625 -32.296875 C 5.382812 -35.628906 7.847656 -38.238281 11.015625 -40.125 C 14.179688 -42.007812 17.742188 -42.953125 21.703125 -42.953125 C 25.734375 -42.953125 29.335938 -41.976562 32.515625 -40.03125 C 35.703125 -38.09375 38.144531 -35.445312 39.84375 -32.09375 C 41.550781 -28.75 42.40625 -25.046875 42.40625 -20.984375 C 42.40625 -16.722656 41.523438 -12.910156 39.765625 -9.546875 C 38.003906 -6.179688 35.5625 -3.5625 32.4375 -1.6875 C 29.3125 0.175781 25.734375 1.109375 21.703125 1.109375 C 17.742188 1.109375 14.195312 0.191406 11.0625 -1.640625 C 7.9375 -3.472656 5.476562 -6.085938 3.6875 -9.484375 C 1.894531 -12.890625 1 -16.722656 1 -20.984375 Z M 21.640625 -34.90625 C 18.160156 -34.90625 15.253906 -33.570312 12.921875 -30.90625 C 10.597656 -28.25 9.4375 -25.050781 9.4375 -21.3125 C 9.4375 -17.132812 10.535156 -13.691406 12.734375 -10.984375 C 14.941406 -8.285156 17.929688 -6.9375 21.703125 -6.9375 C 25.472656 -6.9375 28.457031 -8.285156 30.65625 -10.984375 C 32.863281 -13.691406 33.96875 -17.132812 33.96875 -21.3125 C 33.96875 -25.082031 32.800781 -28.289062 30.46875 -30.9375 C 28.132812 -33.582031 25.191406 -34.90625 21.640625 -34.90625 Z M 21.640625 -34.90625 "/></g></g><g style="fill:#000000;fill-opacity:1;"><g transform="translate(101.647055, 74.289057)"><path style="stroke:none" d="M 14.265625 -41.84375 C 18.671875 -41.84375 22.066406 -40.757812 24.453125 -38.59375 C 26.835938 -36.4375 28.03125 -33.320312 28.03125 -29.25 C 28.03125 -26.289062 27.222656 -23.707031 25.609375 -21.5 C 24.003906 -19.300781 21.960938 -18.019531 19.484375 -17.65625 L 31.296875 0 L 21.421875 0 L 11.265625 -16.875 L 11.15625 -16.875 L 11.15625 0 L 3 0 L 3 -41.84375 Z M 11.15625 -22.59375 L 12.046875 -22.59375 C 14.859375 -22.59375 16.863281 -23.109375 18.0625 -24.140625 C 19.269531 -25.179688 19.875 -26.8125 19.875 -29.03125 C 19.875 -31.207031 19.28125 -32.773438 18.09375 -33.734375 C 16.90625 -34.703125 14.925781 -35.1875 12.15625 -35.1875 L 11.15625 -35.1875 Z M 11.15625 -22.59375 "/></g></g><g style="fill:#000000;fill-opacity:1;"><g transform="translate(132.61704, 74.289057)"><path style="stroke:none" d="M 13.4375 -41.84375 C 17.5 -41.84375 20.554688 -40.898438 22.609375 -39.015625 C 24.671875 -37.128906 25.703125 -34.300781 25.703125 -30.53125 C 25.703125 -28.96875 25.410156 -27.425781 24.828125 -25.90625 C 24.253906 -24.394531 23.320312 -23.210938 22.03125 -22.359375 C 24.289062 -21.921875 26.046875 -20.71875 27.296875 -18.75 C 28.554688 -16.789062 29.1875 -14.5 29.1875 -11.875 C 29.1875 -8.132812 28.007812 -5.21875 25.65625 -3.125 C 23.3125 -1.039062 20.085938 0 15.984375 0 L 3 0 L 3 -41.84375 Z M 11.15625 -24.421875 L 12.15625 -24.421875 C 14.375 -24.421875 15.914062 -24.835938 16.78125 -25.671875 C 17.65625 -26.503906 18.09375 -27.921875 18.09375 -29.921875 C 18.09375 -31.691406 17.644531 -33.03125 16.75 -33.9375 C 15.863281 -34.84375 14.3125 -35.296875 12.09375 -35.296875 L 11.15625 -35.296875 Z M 11.15625 -6.546875 L 13.4375 -6.546875 C 16.132812 -6.546875 18.070312 -7 19.25 -7.90625 C 20.4375 -8.8125 21.03125 -10.359375 21.03125 -12.546875 C 21.03125 -14.242188 20.640625 -15.476562 19.859375 -16.25 C 19.085938 -17.03125 18.238281 -17.535156 17.3125 -17.765625 C 16.238281 -18.054688 14.757812 -18.203125 12.875 -18.203125 L 11.15625 -18.203125 Z M 11.15625 -6.546875 "/></g></g><g style="fill:#000000;fill-opacity:1;"><g transform="translate(163.309521, 74.289057)"><path style="stroke:none" d="M 22.140625 -42.953125 L 38.015625 0 L 29.296875 0 L 26.078125 -8.828125 L 11.546875 -8.828125 L 8.109375 0 L -0.5 0 L 15.8125 -42.953125 Z M 13.875 -15.484375 L 23.8125 -15.484375 L 18.59375 -30.6875 L 18.484375 -30.6875 Z M 13.875 -15.484375 "/></g></g><g style="fill:#000000;fill-opacity:1;"><g transform="translate(200.828728, 74.289057)"><path style="stroke:none" d="M 8.875 -42.953125 L 30.90625 -13.703125 L 31.03125 -13.703125 L 31.03125 -41.84375 L 39.1875 -41.84375 L 39.1875 0.828125 L 33.296875 0.828125 L 11.265625 -28.421875 L 11.15625 -28.421875 L 11.15625 0 L 3 0 L 3 -42.953125 Z M 8.875 -42.953125 "/></g></g><g style="fill:#000000;fill-opacity:1;"><g transform="translate(25.208302, 101.008161)"><path style="stroke:none" d="M 14.125 -23.609375 L 14.125 -19.609375 L 9.359375 -19.609375 L 9.359375 0 L 4.765625 0 L 4.765625 -19.609375 L 0 -19.609375 L 0 -23.609375 Z M 14.125 -23.609375 "/></g></g><g style="fill:#000000;fill-opacity:1;"><g transform="translate(39.325992, 101.008161)"><path style="stroke:none" d="M 13.90625 -23.609375 L 13.90625 -19.609375 L 6.296875 -19.609375 L 6.296875 -14.40625 L 13.625 -14.40625 L 13.625 -10.390625 L 6.296875 -10.390625 L 6.296875 -4.015625 L 13.90625 -4.015625 L 13.90625 0 L 1.6875 0 L 1.6875 -23.609375 Z M 13.90625 -23.609375 "/></g></g><g style="fill:#000000;fill-opacity:1;"><g transform="translate(54.601901, 101.008161)"><path style="stroke:none" d="M 17.46875 -17.34375 C 16.820312 -18.132812 16.035156 -18.75 15.109375 -19.1875 C 14.179688 -19.632812 13.238281 -19.859375 12.28125 -19.859375 C 10.269531 -19.859375 8.609375 -19.0625 7.296875 -17.46875 C 5.984375 -15.882812 5.328125 -13.960938 5.328125 -11.703125 C 5.328125 -9.492188 5.992188 -7.613281 7.328125 -6.0625 C 8.660156 -4.519531 10.300781 -3.75 12.25 -3.75 C 13.25 -3.75 14.207031 -3.984375 15.125 -4.453125 C 16.039062 -4.929688 16.820312 -5.535156 17.46875 -6.265625 L 17.46875 -0.78125 C 16.59375 -0.363281 15.722656 -0.0234375 14.859375 0.234375 C 13.992188 0.492188 13.082031 0.625 12.125 0.625 C 10.03125 0.625 8.109375 0.09375 6.359375 -0.96875 C 4.617188 -2.03125 3.21875 -3.519531 2.15625 -5.4375 C 1.09375 -7.363281 0.5625 -9.421875 0.5625 -11.609375 C 0.5625 -13.910156 1.070312 -16.035156 2.09375 -17.984375 C 3.113281 -19.941406 4.515625 -21.472656 6.296875 -22.578125 C 8.085938 -23.679688 10.0625 -24.234375 12.21875 -24.234375 C 13.15625 -24.234375 14.066406 -24.113281 14.953125 -23.875 C 15.835938 -23.632812 16.675781 -23.296875 17.46875 -22.859375 Z M 17.46875 -17.34375 "/></g></g><g style="fill:#000000;fill-opacity:1;"><g transform="translate(73.415053, 101.008161)"><path style="stroke:none" d="M 6.296875 -23.609375 L 6.296875 -14.3125 L 14.8125 -14.3125 L 14.8125 -23.609375 L 19.40625 -23.609375 L 19.40625 0 L 14.8125 0 L 14.8125 -10.546875 L 6.296875 -10.546875 L 6.296875 0 L 1.6875 0 L 1.6875 -23.609375 Z M 6.296875 -23.609375 "/></g></g><g style="fill:#000000;fill-opacity:1;"><g transform="translate(94.513341, 101.008161)"><path style="stroke:none" d="M 5.015625 -24.234375 L 17.4375 -7.734375 L 17.5 -7.734375 L 17.5 -23.609375 L 22.109375 -23.609375 L 22.109375 0.46875 L 18.78125 0.46875 L 6.359375 -16.03125 L 6.296875 -16.03125 L 6.296875 0 L 1.6875 0 L 1.6875 -24.234375 Z M 5.015625 -24.234375 "/></g></g><g style="fill:#000000;fill-opacity:1;"><g transform="translate(118.27239, 101.008161)"><path style="stroke:none" d="M 0.5625 -11.84375 C 0.5625 -14.21875 1.054688 -16.34375 2.046875 -18.21875 C 3.035156 -20.101562 4.421875 -21.578125 6.203125 -22.640625 C 7.992188 -23.703125 10.007812 -24.234375 12.25 -24.234375 C 14.519531 -24.234375 16.550781 -23.6875 18.34375 -22.59375 C 20.144531 -21.5 21.523438 -20.003906 22.484375 -18.109375 C 23.441406 -16.222656 23.921875 -14.132812 23.921875 -11.84375 C 23.921875 -9.4375 23.425781 -7.28125 22.4375 -5.375 C 21.445312 -3.476562 20.066406 -2.003906 18.296875 -0.953125 C 16.535156 0.0976562 14.519531 0.625 12.25 0.625 C 10.007812 0.625 8.003906 0.109375 6.234375 -0.921875 C 4.472656 -1.953125 3.085938 -3.425781 2.078125 -5.34375 C 1.066406 -7.269531 0.5625 -9.4375 0.5625 -11.84375 Z M 12.21875 -19.703125 C 10.25 -19.703125 8.609375 -18.945312 7.296875 -17.4375 C 5.984375 -15.9375 5.328125 -14.132812 5.328125 -12.03125 C 5.328125 -9.664062 5.945312 -7.71875 7.1875 -6.1875 C 8.425781 -4.664062 10.113281 -3.90625 12.25 -3.90625 C 14.375 -3.90625 16.054688 -4.664062 17.296875 -6.1875 C 18.535156 -7.71875 19.15625 -9.664062 19.15625 -12.03125 C 19.15625 -14.15625 18.5 -15.960938 17.1875 -17.453125 C 15.875 -18.953125 14.21875 -19.703125 12.21875 -19.703125 Z M 12.21875 -19.703125 "/></g></g><g style="fill:#000000;fill-opacity:1;"><g transform="translate(142.75141, 101.008161)"><path style="stroke:none" d="M 6.296875 -23.609375 L 6.296875 -4.015625 L 12.8125 -4.015625 L 12.8125 0 L 1.6875 0 L 1.6875 -23.609375 Z M 6.296875 -23.609375 "/></g></g><g style="fill:#000000;fill-opacity:1;"><g transform="translate(155.335254, 101.008161)"><path style="stroke:none" d="M 0.5625 -11.84375 C 0.5625 -14.21875 1.054688 -16.34375 2.046875 -18.21875 C 3.035156 -20.101562 4.421875 -21.578125 6.203125 -22.640625 C 7.992188 -23.703125 10.007812 -24.234375 12.25 -24.234375 C 14.519531 -24.234375 16.550781 -23.6875 18.34375 -22.59375 C 20.144531 -21.5 21.523438 -20.003906 22.484375 -18.109375 C 23.441406 -16.222656 23.921875 -14.132812 23.921875 -11.84375 C 23.921875 -9.4375 23.425781 -7.28125 22.4375 -5.375 C 21.445312 -3.476562 20.066406 -2.003906 18.296875 -0.953125 C 16.535156 0.0976562 14.519531 0.625 12.25 0.625 C 10.007812 0.625 8.003906 0.109375 6.234375 -0.921875 C 4.472656 -1.953125 3.085938 -3.425781 2.078125 -5.34375 C 1.066406 -7.269531 0.5625 -9.4375 0.5625 -11.84375 Z M 12.21875 -19.703125 C 10.25 -19.703125 8.609375 -18.945312 7.296875 -17.4375 C 5.984375 -15.9375 5.328125 -14.132812 5.328125 -12.03125 C 5.328125 -9.664062 5.945312 -7.71875 7.1875 -6.1875 C 8.425781 -4.664062 10.113281 -3.90625 12.25 -3.90625 C 14.375 -3.90625 16.054688 -4.664062 17.296875 -6.1875 C 18.535156 -7.71875 19.15625 -9.664062 19.15625 -12.03125 C 19.15625 -14.15625 18.5 -15.960938 17.1875 -17.453125 C 15.875 -18.953125 14.21875 -19.703125 12.21875 -19.703125 Z M 12.21875 -19.703125 "/></g></g><g style="fill:#000000;fill-opacity:1;"><g transform="translate(179.814274, 101.008161)"><path style="stroke:none" d="M 17.34375 -16.40625 C 16.863281 -17.46875 16.148438 -18.359375 15.203125 -19.078125 C 14.253906 -19.804688 13.175781 -20.171875 11.96875 -20.171875 C 10.625 -20.171875 9.441406 -19.753906 8.421875 -18.921875 C 7.398438 -18.097656 6.628906 -17.050781 6.109375 -15.78125 C 5.585938 -14.507812 5.328125 -13.148438 5.328125 -11.703125 C 5.328125 -9.410156 5.953125 -7.457031 7.203125 -5.84375 C 8.453125 -4.238281 10.050781 -3.4375 12 -3.4375 C 13.414062 -3.4375 14.644531 -3.953125 15.6875 -4.984375 C 16.726562 -6.023438 17.289062 -7.296875 17.375 -8.796875 L 12.375 -8.796875 L 12.375 -12.5625 L 22.546875 -12.5625 L 22.546875 -11.90625 C 22.546875 -9.457031 22.117188 -7.285156 21.265625 -5.390625 C 20.410156 -3.503906 19.171875 -2.03125 17.546875 -0.96875 C 15.929688 0.09375 14.019531 0.625 11.8125 0.625 C 9.632812 0.625 7.679688 0.0664062 5.953125 -1.046875 C 4.234375 -2.160156 2.90625 -3.65625 1.96875 -5.53125 C 1.03125 -7.414062 0.5625 -9.472656 0.5625 -11.703125 C 0.5625 -14.046875 1.046875 -16.160156 2.015625 -18.046875 C 2.984375 -19.941406 4.347656 -21.445312 6.109375 -22.5625 C 7.878906 -23.675781 9.875 -24.234375 12.09375 -24.234375 C 14.113281 -24.234375 15.929688 -23.753906 17.546875 -22.796875 C 19.171875 -21.835938 20.460938 -20.4375 21.421875 -18.59375 Z M 17.34375 -16.40625 "/></g></g><g style="fill:#000000;fill-opacity:1;"><g transform="translate(202.947261, 101.008161)"><path style="stroke:none" d="M 6.296875 -23.609375 L 6.296875 0 L 1.6875 0 L 1.6875 -23.609375 Z M 6.296875 -23.609375 "/></g></g><g style="fill:#000000;fill-opacity:1;"><g transform="translate(210.898246, 101.008161)"><path style="stroke:none" d="M 13.90625 -23.609375 L 13.90625 -19.609375 L 6.296875 -19.609375 L 6.296875 -14.40625 L 13.625 -14.40625 L 13.625 -10.390625 L 6.296875 -10.390625 L 6.296875 -4.015625 L 13.90625 -4.015625 L 13.90625 0 L 1.6875 0 L 1.6875 -23.609375 Z M 13.90625 -23.609375 "/></g></g><g style="fill:#000000;fill-opacity:1;"><g transform="translate(226.174155, 101.008161)"><path style="stroke:none" d="M 12.8125 -18.40625 C 12.375 -19.007812 11.863281 -19.484375 11.28125 -19.828125 C 10.707031 -20.179688 10.035156 -20.359375 9.265625 -20.359375 C 8.472656 -20.359375 7.796875 -20.09375 7.234375 -19.5625 C 6.671875 -19.039062 6.390625 -18.414062 6.390625 -17.6875 C 6.390625 -17.019531 6.664062 -16.453125 7.21875 -15.984375 C 7.769531 -15.515625 8.585938 -15.070312 9.671875 -14.65625 C 11.554688 -13.882812 12.890625 -13.140625 13.671875 -12.421875 C 14.453125 -11.710938 14.992188 -10.953125 15.296875 -10.140625 C 15.597656 -9.328125 15.75 -8.429688 15.75 -7.453125 C 15.75 -5.046875 15.035156 -3.097656 13.609375 -1.609375 C 12.191406 -0.117188 10.316406 0.625 7.984375 0.625 C 6.359375 0.625 4.941406 0.203125 3.734375 -0.640625 C 2.535156 -1.484375 1.53125 -2.597656 0.71875 -3.984375 L 3.6875 -6.890625 C 4.050781 -5.890625 4.628906 -5.0625 5.421875 -4.40625 C 6.210938 -3.757812 7.054688 -3.4375 7.953125 -3.4375 C 8.828125 -3.4375 9.550781 -3.753906 10.125 -4.390625 C 10.695312 -5.035156 10.984375 -5.859375 10.984375 -6.859375 C 10.984375 -7.734375 10.710938 -8.429688 10.171875 -8.953125 C 9.628906 -9.472656 8.828125 -9.941406 7.765625 -10.359375 C 5.410156 -11.253906 3.796875 -12.203125 2.921875 -13.203125 C 2.054688 -14.210938 1.625 -15.53125 1.625 -17.15625 C 1.625 -18.40625 1.914062 -19.570312 2.5 -20.65625 C 3.082031 -21.75 3.90625 -22.617188 4.96875 -23.265625 C 6.039062 -23.910156 7.222656 -24.234375 8.515625 -24.234375 C 9.660156 -24.234375 10.863281 -23.972656 12.125 -23.453125 C 13.394531 -22.929688 14.34375 -22.316406 14.96875 -21.609375 Z M 12.8125 -18.40625 "/></g></g><g clip-rule="nonzero" clip-path="url(#8848bd6aab)"><g clip-rule="nonzero" clip-path="url(#a60ea10be2)"><path style=" stroke:none;fill-rule:nonzero;fill:#ffa500;fill-opacity:1;" d="M 126.324219 5.730469 L 141.546875 5.730469 L 141.546875 20.21875 L 126.324219 20.21875 Z M 126.324219 5.730469 "/></g></g><g clip-rule="nonzero" clip-path="url(#b4f3fea71b)"><g clip-rule="nonzero" clip-path="url(#57f94843e5)"><path style=" stroke:none;fill-rule:nonzero;fill:#ffa500;fill-opacity:1;" d="M 145.257812 12.976562 L 157.195312 12.976562 L 157.195312 24.335938 L 145.257812 24.335938 Z M 145.257812 12.976562 "/></g></g><g clip-rule="nonzero" clip-path="url(#74a61fd210)"><g clip-rule="nonzero" clip-path="url(#e27a5d77f8)"><path style=" stroke:none;fill-rule:nonzero;fill:#ffa500;fill-opacity:1;" d="M 110.667969 12.976562 L 122.609375 12.976562 L 122.609375 24.335938 L 110.667969 24.335938 Z M 110.667969 12.976562 "/></g></g></g></svg>